# AST/ASF file generated using VICON BodyLanguage
# -----------------------------------------------
:version 1.10
:name VICON
:units
  mass 1.0
  length 0.45
  angle deg
:documentation
   .ast/.asf automatically generated from VICON data using
   VICON BodyBuilder and BodyLanguage model FoxedUp or BRILLIANT.MOD
:root
   order TX TY TZ RX RY RZ
   axis XYZ
   position 0 0 0  
   orientation 0 0 0 
:bonedata
  begin
     id 1 
     name lhipjoint
     direction 0.62366 -0.717238 0.310833 
     length 2.53602 
     axis 0 0 0  XYZ
  end
  begin
     id 2 
     name lfemur
     direction 0.34202 -0.939693 0  
     length 7.40817  
     axis 0 0 20  XYZ
    dof rx ry rz
    limits (-160.0 20.0)
           (-70.0 70.0)
           (-60.0 70.0)
  end
  begin
     id 3 
     name ltibia
     direction 0.34202 -0.939693 0   
     length 7.7045   
     axis 0 0 20   XYZ
    dof rx
    limits (-10.0 170.0)
  end
  begin
     id 4 
     name lfoot
     direction 0.0673888 -0.185149 0.980397   
     length 2.09456   
     axis -90 7.62852e-016 20   XYZ
    dof rx rz
    limits (-45.0 90.0)
           (-70.0 20.0)
  end
  begin
     id 5 
     name ltoes
     direction 1.53575e-011 -4.21994e-011 1   
     length 1.05543   
     axis -90 7.62852e-016 20   XYZ
    dof rx
    limits (-90.0 20.0)
  end
  begin
     id 6 
     name rhipjoint
     direction -0.489018 -0.800347 0.346851   
     length 2.27268  
     axis 0 0 0  XYZ 
  end
  begin
     id 7 
     name rfemur
     direction -0.34202 -0.939693 0   
     length 7.55487   
     axis 0 0 -20   XYZ
    dof rx ry rz
    limits (-160.0 20.0)
           (-70.0 70.0)
           (-70.0 60.0)
  end
  begin
     id 8 
     name rtibia
     direction -0.34202 -0.939693 0   
     length 7.78969   
     axis 0 0 -20   XYZ
    dof rx
    limits (-10.0 170.0)
 end
 begin
     id 9 
     name rfoot
     direction -0.0859318 -0.236096 0.967923   
     length 2.19143  
     axis -90 -7.62852e-016 -20   XYZ
    dof rx rz
    limits (-45.0 90.0)
           (-20.0 70.0)
  end
  begin
     id 10 
     name rtoes
     direction -1.53538e-011 -4.21989e-011 1   
     length 1.09845   
     axis -90 -7.62852e-016 -20   XYZ
    dof rx
    limits (-90.0 20.0)
  end
  begin
     id 11 
     name lowerback
     direction -0.00762546 0.998978 -0.0445553   
     length 1.98161   
     axis 0 0 0   XYZ
    dof rx ry rz
    limits (-20.0 45.0)
           (-30.0 30.0)
           (-30.0 30.0)
  end
  begin
     id 12 
     name upperback
     direction 0.0422361 0.998867 -0.0219156   
     length 1.97558   
     axis 0 0 0   XYZ
    dof rx ry rz
    limits (-20.0 45.0)
           (-30.0 30.0)
           (-30.0 30.0)
  end
  begin
     id 13 
     name thorax
     direction 0.0442465 0.999021 7.47603e-005   
     length 1.97799   
     axis 0 0 0   XYZ
    dof rx ry rz
    limits (-20.0 45.0)
           (-30.0 30.0)
           (-30.0 30.0)
  end
  begin
     id 14 
     name lowerneck
     direction 0.00312169 0.984641 0.174564   
     length 1.78995   
     axis 0 0 0   XYZ
    dof rx ry rz
    limits (-20.0 45.0)
           (-30.0 30.0)
           (-30.0 30.0)
  end
  begin
     id 15 
     name upperneck
     direction -0.0383028 0.985255 -0.166749   
     length 1.83053   
     axis 0 0 0   XYZ
    dof rx ry rz
    limits (-20.0 45.0)
           (-30.0 30.0)
           (-30.0 30.0)
  end
  begin
     id 16
     name head
     direction -0.0129546 0.997059 -0.0755386  
     length 1.84088  
     axis 0 0 0   XYZ
    dof rx ry rz
    limits (-20.0 45.0)
           (-30.0 30.0)
           (-30.0 30.0)
  end
  begin
     id 17 
     name lclavicle
     direction 0.912857 0.370519 -0.171488  
     length 3.51279  
     axis 0 0 0   XYZ
    dof ry rz
    limits (-20.0 10.0)
           (0.0 20.0)
  end
  begin
     id 18 
     name lhumerus
     direction 1 -4.48962e-011 3.64361e-027   
     length 4.95663   
     axis 180 -30 -90   XYZ
    dof rx ry rz
    limits (-60.0 90.0)
           (-90.0 90.0)
           (-90.0 90.0)
  end
  begin
     id 19
     name lradius
     direction 1 -4.48974e-011 5.97202e-027   
     length 3.38177   
     axis 180 -30 -90   XYZ
    dof rx
    limits (-10.0 170.0)
  end
  begin
     id 20
     name lwrist
     direction 1 -4.4896e-011 9.83288e-027   
     length 1.69088   
     axis -9.31221e-015 90 90   XYZ
    dof ry
    limits (-180.0 0.0)
 end
  begin
     id 21 
     name lhand
     direction 1 -4.4902e-011 1.96551e-026   
     length 0.662909   
     axis -1.25475e-014 90 90   XYZ
    dof rx rz
    limits (-90.0 90.0)
           (-45.0 45.0)
  end
  begin
     id 22 
     name lfingers
     direction 1 -4.48971e-011 3.93277e-026   
     length 0.534454   
     axis -2.50945e-014 90 90   XYZ
    dof rx
    limits (0.0 90.0)
  end
  begin
     id 23
     name lthumb
     direction 0.707107 -6.34933e-011 0.707107   
     length 0.767373   
     axis -90 45 -4.80359e-014   XYZ
    dof rx rz
    limits (-45.0 45.0)
           (-45.0 45.0)
  end
  begin
     id 24 
     name rclavicle
     direction -0.900919 0.395364 -0.178976   
     length 3.40627  
     axis 0 0 0   XYZ 
    dof ry rz
    limits (-10.0 20.0)
           (-20.0 0.0)
  end
  begin
     id 25 
     name rhumerus
     direction -1 -4.48969e-011 1.03875e-027  
     length 5.08365   
     axis 180 30 90   XYZ
    dof rx ry rz
    limits (-90.0 60.0)
           (-90.0 90.0)
           (-90.0 90.0)
  end
  begin
     id 26 
     name rradius
     direction -1 -4.48951e-011 5.02733e-027   
     length 3.35984   
     axis 180 30 90   XYZ
    dof rx
    limits (-10.0 170.0)
  end
  begin
     id 27 
     name rwrist
     direction -1 -4.49011e-011 9.82828e-027   
     length 1.67992   
     axis -9.31221e-015 -90 -90   XYZ
    dof ry
    limits (-180.0 0.0)
  end
  begin
     id 28
     name rhand
     direction -1 -4.48894e-011 1.96774e-026   
     length 0.820764   
     axis -1.25475e-014 -90 -90   XYZ
    dof rx rz
    limits (-90.0 90.0)
           (-45.0 45.0)
  end
  begin
     id 29
     name rfingers
     direction -1 -4.49095e-011 3.92833e-026   
     length 0.661721   
     axis -2.50945e-014 -90 -90   XYZ
    dof rx
    limits (0.0 90.0)
  end
  begin
     id 30
     name rthumb
     direction -0.707107 -6.34881e-011 0.707107   
     length 0.950103   
     axis -90 -45 4.80359e-014   XYZ
    dof rx rz
    limits (-45.0 45.0)
           (-45.0 45.0)
  end
:hierarchy
  begin
    root lhipjoint rhipjoint lowerback
    lhipjoint lfemur
    lfemur ltibia
    ltibia lfoot
    lfoot ltoes
    rhipjoint rfemur
    rfemur rtibia
    rtibia rfoot
    rfoot rtoes
    lowerback upperback
    upperback thorax
    thorax lowerneck lclavicle rclavicle
    lowerneck upperneck
    upperneck head
    lclavicle lhumerus
    lhumerus lradius
    lradius lwrist
    lwrist lhand lthumb
    lhand lfingers
    rclavicle rhumerus
    rhumerus rradius
    rradius rwrist
    rwrist rhand rthumb
    rhand rfingers
  end

#!OML:ASF I:\golf\golf\golf 2\Subject 1\2002-09-07\Subject1.ASF
:FULLY-SPECIFIED
:DEGREES
1
root -8.13992 17.6004 -0.193126 -113.606 86.7301 -129.626
lowerback 5.23959 1.93109 -1.48157
upperback 3.58526 2.665 4.76822
thorax 0.469747 1.33135 5.6423
lowerneck -14.9352 -2.13644 1.33075
upperneck 36.5262 -0.198992 -4.90832
head 15.2619 -0.0906337 -2.21246
rclavicle -4.49253e-014 -3.73715e-014
rhumerus -3.91988 -2.04493 -100.725
rradius 20.4677
rwrist -37.1906
rhand -11.4464 -7.56385
rfingers 7.12502
rthumb 14.5904 -37.0307
lclavicle -4.49253e-014 -3.73715e-014
lhumerus -7.93279 -39.8756 109.438
lradius 26.2693
lwrist 43.2813
lhand -14.7721 71.5189
lfingers 7.12502
lthumb -168.615 78.8102
rfemur -32.0769 -2.04862 10.3939
rtibia 32.9771
rfoot -10.0829 -9.5819
rtoes -12.3323
lfemur -33.4287 4.81006 -8.38775
ltibia 33.4794
lfoot -15.0321 -3.86664
ltoes -31.7338
2
root -8.13864 17.6006 -0.19223 -113.99 86.7129 -130.021
lowerback 5.16071 1.934 -1.48111
upperback 3.61595 2.66844 4.78566
thorax 0.544322 1.33154 5.66395
lowerneck -14.9878 -2.14129 1.29443
upperneck 36.5696 -0.200162 -4.88195
head 15.2959 -0.0920278 -2.1971
rclavicle 0 5.56597e-015
rhumerus -3.93593 -1.78508 -100.698
rradius 20.559
rwrist -37.8882
rhand -11.2701 -7.48687
rfingers 7.12502
rthumb 14.7603 -36.9413
lclavicle 0 5.56597e-015
lhumerus -7.84254 -39.938 109.295
lradius 26.3547
lwrist 43.4175
lhand -14.5254 71.7337
lfingers 7.12502
lthumb -168.378 78.6086
rfemur -32.0748 -2.0846 10.4133
rtibia 32.9509
rfoot -10.2775 -9.69535
rtoes -15.8912
lfemur -33.4802 4.83145 -8.41203
ltibia 33.5345
lfoot -15.0991 -3.81518
ltoes -32.1845
3
root -8.13843 17.6052 -0.191513 -114.458 86.7023 -130.498
lowerback 5.08807 1.93814 -1.48364
upperback 3.6439 2.67321 4.79635
thorax 0.612616 1.33243 5.67985
lowerneck -15.0433 -2.15798 1.26186
upperneck 36.6326 -0.216415 -4.85836
head 15.3396 -0.0989721 -2.18667
rclavicle -1.98785e-014 1.59028e-015
rhumerus -3.92126 -1.71209 -100.697
rradius 20.614
rwrist -38.292
rhand -11.1053 -7.25523
rfingers 7.12502
rthumb 14.9191 -36.698
lclavicle -1.98785e-014 1.59028e-015
lhumerus -7.7499 -40.0283 109.148
lradius 26.4388
lwrist 43.6157
lhand -13.9515 71.213
lfingers 7.12502
lthumb -167.824 79.1613
rfemur -32.0393 -2.09086 10.4098
rtibia 32.8803
rfoot -10.1946 -9.74137
rtoes -15.7699
lfemur -33.4821 4.72081 -8.32635
ltibia 33.6483
lfoot -15.0434 -4.14692
ltoes -30.4627
4
root -8.13874 17.6098 -0.190175 -114.448 86.7077 -130.455
lowerback 5.10101 1.94131 -1.48775
upperback 3.65069 2.67759 4.80035
thorax 0.61162 1.3346 5.68589
lowerneck -15.0025 -2.15754 1.20993
upperneck 36.6485 -0.208774 -4.81834
head 15.3388 -0.0958319 -2.15865
rclavicle -8.74653e-015 -2.14687e-014
rhumerus -3.89805 -1.895 -100.699
rradius 20.5519
rwrist -37.9992
rhand -10.8056 -7.06963
rfingers 7.12502
rthumb 15.2078 -36.4907
lclavicle -8.74653e-015 -2.14687e-014
lhumerus -7.67798 -40.0733 109.065
lradius 26.4593
lwrist 43.7951
lhand -13.2562 70.0582
lfingers 7.12502
lthumb -167.154 80.3571
rfemur -31.9916 -2.06162 10.4061
rtibia 32.8673
rfoot -10.139 -9.76847
rtoes -15.4481
lfemur -33.381 4.60993 -8.222
ltibia 33.7178
lfoot -15.0098 -4.46216
ltoes -28.6716
5
root -8.13892 17.6073 -0.190019 -114.676 86.7224 -130.646
lowerback 5.08917 1.92364 -1.48743
upperback 3.67975 2.65368 4.79608
thorax 0.651133 1.3217 5.68376
lowerneck -14.9865 -2.13499 1.1899
upperneck 36.6645 -0.164365 -4.81896
head 15.3453 -0.0791194 -2.14799
rclavicle 2.54444e-014 -4.13472e-014
rhumerus -3.87581 -1.82158 -100.71
rradius 20.5037
rwrist -37.8266
rhand -10.7925 -6.90198
rfingers 7.12502
rthumb 15.2203 -36.3221
lclavicle 2.54444e-014 -4.13472e-014
lhumerus -7.53989 -40.1243 108.913
lradius 26.4438
lwrist 44.093
lhand -13.2097 69.8245
lfingers 7.12502
lthumb -167.109 80.5936
rfemur -31.9481 -2.02496 10.3686
rtibia 32.872
rfoot -10.192 -9.74354
rtoes -15.2324
lfemur -33.323 4.67055 -8.27733
ltibia 33.7578
lfoot -14.6439 -4.57331
ltoes -27.3305
6
root -8.13901 17.602 -0.190619 -115.311 86.7588 -131.269
lowerback 5.06641 1.93238 -1.4886
upperback 3.70147 2.66376 4.7621
thorax 0.686595 1.32576 5.6495
lowerneck -15.0549 -2.1517 1.2295
upperneck 36.7464 -0.183501 -4.84367
head 15.4003 -0.0834794 -2.17216
rclavicle -1.03368e-014 -2.38542e-015
rhumerus -3.84026 -1.76003 -100.741
rradius 20.4945
rwrist -37.8228
rhand -10.6813 -6.69128
rfingers 7.12502
rthumb 15.3275 -36.1032
lclavicle -1.03368e-014 -2.38542e-015
lhumerus -7.38626 -40.1884 108.759
lradius 26.36
lwrist 44.3021
lhand -13.3193 69.9941
lfingers 7.12502
lthumb -167.215 80.4173
rfemur -31.9459 -2.02847 10.3073
rtibia 32.896
rfoot -10.1869 -9.7654
rtoes -15.6365
lfemur -33.3183 4.74814 -8.40578
ltibia 33.7579
lfoot -13.5904 -4.78998
ltoes -23.1039
7
root -8.13936 17.6009 -0.190787 -115.497 86.7557 -131.428
lowerback 5.08229 1.95453 -1.46541
upperback 3.71524 2.6944 4.75694
thorax 0.689842 1.34151 5.62897
lowerneck -15.1028 -2.17729 1.21418
upperneck 36.8169 -0.214774 -4.82536
head 15.4451 -0.094407 -2.16954
rclavicle 9.93923e-015 -1.59028e-015
rhumerus -3.77839 -1.93395 -100.739
rradius 20.5129
rwrist -37.8882
rhand -10.1371 -6.6352
rfingers 7.12502
rthumb 15.8516 -36.0063
lclavicle 9.93923e-015 -1.59028e-015
lhumerus -7.29282 -40.1862 108.697
lradius 26.3035
lwrist 44.1577
lhand -12.6772 69.8261
lfingers 7.12502
lthumb -166.596 80.6251
rfemur -31.9365 -2.04511 10.3096
rtibia 32.9351
rfoot -10.1641 -9.83541
rtoes -16.0953
lfemur -33.3546 4.83373 -8.48745
ltibia 33.7213
lfoot -12.7529 -5.00595
ltoes -18.7856
